<svg width="32" height="32" xmlns="http://www.w3.org/2000/svg">
 <title/>
 <desc/>

 <g>
  <title>background</title>
  <rect fill="none" id="canvas_background" height="402" width="582" y="-1" x="-1"/>
 </g>
 <g>
  <title>Layer 1</title>
  <path id="one-finger" stroke="#3D39FF" d="m19.49874,29c4.14283,0 7.50126,-3.58522 7.50126,-7.5c0,0 0,2.31324 0,0l0,-3.75084l0,-2.24748c0,-0.82936 -0.6658,-1.50168 -1.5,-1.50168c-0.82843,0 -1.5,0.67119 -1.5,1.50168l0,0.49832l-1,0l0,-2.49356c0,-0.83198 -0.6658,-1.50644 -1.5,-1.50644c-0.82843,0 -1.5,0.67154 -1.5,1.50644l0,1.49356l-1,0l0,-2.49356c0,-0.83198 -0.6658,-1.50644 -1.5,-1.50644c-0.82843,0 -1.5,0.67154 -1.5,1.50644l0,3.49356l-1,0l0,-10.49476c0,-0.83132 -0.6658,-1.50524 -1.5,-1.50524c-0.82843,0 -1.5,0.66713 -1.5,1.50524l0,11.29475c-2.0584,-2.20042 -4.76837,-4.62087 -5.87897,-3.50427c-1.08717,1.09304 1.71433,4.105 5.62635,10.68737c1.76262,2.9658 3.9929,5.01645 7.75136,5.01691l0,0l0,0zm8.50126,-7.5c0,4.69442 -3.80558,8.5 -8.5,8.5c-3.11292,0 -6.39819,-1.45251 -8.65918,-5.57178c-3.26349,-5.9457 -7.43697,-9.84501 -5.44971,-11.83227c1.42165,-1.42165 3.65373,-0.05778 5.60889,1.77084l0,0l0,-8.85838c0,-1.39299 1.11929,-2.50841 2.5,-2.50841c1.39034,0 2.5,1.12305 2.5,2.50841l0,4.98996c0.41783,-0.31306 0.9372,-0.49837 1.5,-0.49837c1.08252,0 1.99489,0.67747 2.34582,1.62812c0.44077,-0.39013 1.01989,-0.62812 1.65418,-0.62812c1.39034,0 2.5,1.11823 2.5,2.49763l0,0.01346c0.41783,-0.31257 0.9372,-0.4969 1.5,-0.4969c1.39034,0 2.5,1.11935 2.5,2.50013l0,5.98568l0,0z"/>
 </g>
</svg>
