<svg width="304" height="78" viewBox="0 0 304 78" fill="none" xmlns="http://www.w3.org/2000/svg">
<g filter="url(#filter0_d)">
<path d="M0 0H300L260.87 36.5L300 70H0V0Z" fill="#DA01FF"/>
</g>
<path d="M55.377 40.4746C55.1777 43.2285 54.1582 45.3965 52.3184 46.9785C50.4902 48.5605 48.0762 49.3516 45.0762 49.3516C41.7949 49.3516 39.2109 48.25 37.3242 46.0469C35.4492 43.832 34.5117 40.7969 34.5117 36.9414V35.377C34.5117 32.916 34.9453 30.748 35.8125 28.873C36.6797 26.998 37.916 25.5625 39.5215 24.5664C41.1387 23.5586 43.0137 23.0547 45.1465 23.0547C48.0996 23.0547 50.4785 23.8457 52.2832 25.4277C54.0879 27.0098 55.1309 29.2305 55.4121 32.0898H50.1387C50.0098 30.4375 49.5469 29.2422 48.75 28.5039C47.9648 27.7539 46.7637 27.3789 45.1465 27.3789C43.3887 27.3789 42.0703 28.0117 41.1914 29.2773C40.3242 30.5312 39.8789 32.4824 39.8555 35.1309V37.0645C39.8555 39.8301 40.2715 41.8516 41.1035 43.1289C41.9473 44.4062 43.2715 45.0449 45.0762 45.0449C46.7051 45.0449 47.918 44.6758 48.7148 43.9375C49.5234 43.1875 49.9863 42.0332 50.1035 40.4746H55.377ZM57.7148 39.3145C57.7148 37.4277 58.0781 35.7461 58.8047 34.2695C59.5312 32.793 60.5742 31.6504 61.9336 30.8418C63.3047 30.0332 64.8926 29.6289 66.6973 29.6289C69.2637 29.6289 71.3555 30.4141 72.9727 31.9844C74.6016 33.5547 75.5098 35.6875 75.6973 38.3828L75.7324 39.6836C75.7324 42.6016 74.918 44.9453 73.2891 46.7148C71.6602 48.4727 69.4746 49.3516 66.7324 49.3516C63.9902 49.3516 61.7988 48.4727 60.1582 46.7148C58.5293 44.957 57.7148 42.5664 57.7148 39.543V39.3145ZM62.7949 39.6836C62.7949 41.4883 63.1348 42.8711 63.8145 43.832C64.4941 44.7812 65.4668 45.2559 66.7324 45.2559C67.9629 45.2559 68.9238 44.7871 69.6152 43.8496C70.3066 42.9004 70.6523 41.3887 70.6523 39.3145C70.6523 37.5449 70.3066 36.1738 69.6152 35.2012C68.9238 34.2285 67.9512 33.7422 66.6973 33.7422C65.4551 33.7422 64.4941 34.2285 63.8145 35.2012C63.1348 36.1621 62.7949 37.6562 62.7949 39.6836ZM84.2227 49H79.125V22H84.2227V49ZM93.7852 49H88.6875V22H93.7852V49ZM109.008 49C108.773 48.543 108.604 47.9746 108.498 47.2949C107.268 48.666 105.668 49.3516 103.699 49.3516C101.836 49.3516 100.289 48.8125 99.0586 47.7344C97.8398 46.6562 97.2305 45.2969 97.2305 43.6562C97.2305 41.6406 97.9746 40.0938 99.4629 39.0156C100.963 37.9375 103.125 37.3926 105.949 37.3809H108.287V36.291C108.287 35.4121 108.059 34.709 107.602 34.1816C107.156 33.6543 106.447 33.3906 105.475 33.3906C104.619 33.3906 103.945 33.5957 103.453 34.0059C102.973 34.416 102.732 34.9785 102.732 35.6934H97.6523C97.6523 34.5918 97.9922 33.5723 98.6719 32.6348C99.3516 31.6973 100.312 30.9648 101.555 30.4375C102.797 29.8984 104.191 29.6289 105.738 29.6289C108.082 29.6289 109.939 30.2207 111.311 31.4043C112.693 32.5762 113.385 34.2285 113.385 36.3613V44.6055C113.396 46.4102 113.648 47.7754 114.141 48.7012V49H109.008ZM104.807 45.4668C105.557 45.4668 106.248 45.3027 106.881 44.9746C107.514 44.6348 107.982 44.1836 108.287 43.6211V40.3516H106.389C103.846 40.3516 102.492 41.2305 102.328 42.9883L102.311 43.2871C102.311 43.9199 102.533 44.4414 102.979 44.8516C103.424 45.2617 104.033 45.4668 104.807 45.4668ZM116.549 39.3496C116.549 36.4316 117.24 34.082 118.623 32.3008C120.018 30.5195 121.893 29.6289 124.248 29.6289C126.334 29.6289 127.957 30.3438 129.117 31.7734L129.328 29.9805H133.934V48.3672C133.934 50.0312 133.553 51.4785 132.791 52.709C132.041 53.9395 130.98 54.877 129.609 55.5215C128.238 56.166 126.633 56.4883 124.793 56.4883C123.398 56.4883 122.039 56.207 120.715 55.6445C119.391 55.0938 118.389 54.3789 117.709 53.5L119.959 50.4062C121.225 51.8242 122.76 52.5332 124.564 52.5332C125.912 52.5332 126.961 52.1699 127.711 51.4434C128.461 50.7285 128.836 49.709 128.836 48.3848V47.3652C127.664 48.6895 126.123 49.3516 124.213 49.3516C121.928 49.3516 120.076 48.4609 118.658 46.6797C117.252 44.8867 116.549 42.5137 116.549 39.5605V39.3496ZM121.629 39.7188C121.629 41.4414 121.975 42.7949 122.666 43.7793C123.357 44.752 124.307 45.2383 125.514 45.2383C127.061 45.2383 128.168 44.6582 128.836 43.498V35.5C128.156 34.3398 127.061 33.7598 125.549 33.7598C124.33 33.7598 123.369 34.2578 122.666 35.2539C121.975 36.25 121.629 37.7383 121.629 39.7188ZM146.607 49.3516C143.818 49.3516 141.545 48.4961 139.787 46.7852C138.041 45.0742 137.168 42.7949 137.168 39.9473V39.4551C137.168 37.5449 137.537 35.8398 138.275 34.3398C139.014 32.8281 140.057 31.668 141.404 30.8594C142.764 30.0391 144.311 29.6289 146.045 29.6289C148.646 29.6289 150.691 30.4492 152.18 32.0898C153.68 33.7305 154.43 36.0566 154.43 39.0684V41.1426H142.318C142.482 42.3848 142.975 43.3809 143.795 44.1309C144.627 44.8809 145.676 45.2559 146.941 45.2559C148.898 45.2559 150.428 44.5469 151.529 43.1289L154.025 45.9238C153.264 47.002 152.232 47.8457 150.932 48.4551C149.631 49.0527 148.189 49.3516 146.607 49.3516ZM146.027 33.7422C145.02 33.7422 144.199 34.082 143.566 34.7617C142.945 35.4414 142.547 36.4141 142.371 37.6797H149.438V37.2754C149.414 36.1504 149.109 35.2832 148.523 34.6738C147.938 34.0527 147.105 33.7422 146.027 33.7422ZM186.721 40.4746C186.521 43.2285 185.502 45.3965 183.662 46.9785C181.834 48.5605 179.42 49.3516 176.42 49.3516C173.139 49.3516 170.555 48.25 168.668 46.0469C166.793 43.832 165.855 40.7969 165.855 36.9414V35.377C165.855 32.916 166.289 30.748 167.156 28.873C168.023 26.998 169.26 25.5625 170.865 24.5664C172.482 23.5586 174.357 23.0547 176.49 23.0547C179.443 23.0547 181.822 23.8457 183.627 25.4277C185.432 27.0098 186.475 29.2305 186.756 32.0898H181.482C181.354 30.4375 180.891 29.2422 180.094 28.5039C179.309 27.7539 178.107 27.3789 176.49 27.3789C174.732 27.3789 173.414 28.0117 172.535 29.2773C171.668 30.5312 171.223 32.4824 171.199 35.1309V37.0645C171.199 39.8301 171.615 41.8516 172.447 43.1289C173.291 44.4062 174.615 45.0449 176.42 45.0449C178.049 45.0449 179.262 44.6758 180.059 43.9375C180.867 43.1875 181.33 42.0332 181.447 40.4746H186.721ZM201.24 47.0664C199.986 48.5898 198.252 49.3516 196.037 49.3516C193.998 49.3516 192.439 48.7656 191.361 47.5938C190.295 46.4219 189.75 44.7051 189.727 42.4434V29.9805H194.807V42.2676C194.807 44.248 195.709 45.2383 197.514 45.2383C199.236 45.2383 200.42 44.6406 201.064 43.4453V29.9805H206.162V49H201.381L201.24 47.0664ZM216.076 25.3047V29.9805H219.328V33.707H216.076V43.1992C216.076 43.9023 216.211 44.4062 216.48 44.7109C216.75 45.0156 217.266 45.168 218.027 45.168C218.59 45.168 219.088 45.127 219.521 45.0449V48.8945C218.525 49.1992 217.5 49.3516 216.445 49.3516C212.883 49.3516 211.066 47.5527 210.996 43.9551V33.707H208.219V29.9805H210.996V25.3047H216.076Z" fill="white"/>
<defs>
<filter id="filter0_d" x="-4" y="0" width="308" height="78" filterUnits="userSpaceOnUse" color-interpolation-filters="sRGB">
<feFlood flood-opacity="0" result="BackgroundImageFix"/>
<feColorMatrix in="SourceAlpha" type="matrix" values="0 0 0 0 0 0 0 0 0 0 0 0 0 0 0 0 0 0 127 0"/>
<feOffset dy="4"/>
<feGaussianBlur stdDeviation="2"/>
<feColorMatrix type="matrix" values="0 0 0 0 0 0 0 0 0 0 0 0 0 0 0 0 0 0 0.25 0"/>
<feBlend mode="normal" in2="BackgroundImageFix" result="effect1_dropShadow"/>
<feBlend mode="normal" in="SourceGraphic" in2="effect1_dropShadow" result="shape"/>
</filter>
</defs>
</svg>
